<svg xmlns="http://www.w3.org/2000/svg" viewBox="0 0 400 400" width="400" height="400">
  <rect width="400" height="400" fill="#F0F0F0"/>
  <path d="M80 160 Q80 140 100 140 L160 140 Q180 140 180 160 L180 180 Q180 200 160 200 L100 200 Q80 200 80 180 Z" fill="none" stroke="#1A1A1A" stroke-width="4"/>
  <path d="M220 160 Q220 140 240 140 L300 140 Q320 140 320 160 L320 180 Q320 200 300 200 L240 200 Q220 200 220 180 Z" fill="none" stroke="#1A1A1A" stroke-width="4"/>
  <line x1="180" y1="160" x2="220" y2="160" stroke="#1A1A1A" stroke-width="3"/>
  <line x1="80" y1="140" x2="60" y2="120" stroke="#1A1A1A" stroke-width="3"/>
  <line x1="320" y1="140" x2="340" y2="120" stroke="#1A1A1A" stroke-width="3"/>
  <line x1="60" y1="120" x2="60" y2="100" stroke="#1A1A1A" stroke-width="3"/>
  <line x1="340" y1="120" x2="340" y2="100" stroke="#1A1A1A" stroke-width="3"/>
  <line x1="60" y1="100" x2="340" y2="100" stroke="#1A1A1A" stroke-width="3"/>
  <text x="200" y="280" font-family="DM Sans, sans-serif" font-size="14" fill="#888888" text-anchor="middle">Aviator Glasses</text>
</svg>
