<svg xmlns="http://www.w3.org/2000/svg" viewBox="0 0 400 400" width="400" height="400">
  <rect width="400" height="400" fill="#F0F0F0"/>
  <path d="M70 150 Q70 130 90 130 L170 130 Q190 130 190 150 L190 190 Q190 210 170 210 L90 210 Q70 210 70 190 Z" fill="none" stroke="#0A0A0A" stroke-width="5"/>
  <path d="M210 150 Q210 130 230 130 L310 130 Q330 130 330 150 L330 190 Q330 210 310 210 L230 210 Q210 210 210 190 Z" fill="none" stroke="#0A0A0A" stroke-width="5"/>
  <line x1="190" y1="160" x2="210" y2="160" stroke="#0A0A0A" stroke-width="4"/>
  <line x1="70" y1="130" x2="50" y2="120" stroke="#0A0A0A" stroke-width="4"/>
  <line x1="330" y1="130" x2="350" y2="120" stroke="#0A0A0A" stroke-width="4"/>
  <line x1="50" y1="120" x2="50" y2="100" stroke="#0A0A0A" stroke-width="4"/>
  <line x1="350" y1="120" x2="350" y2="100" stroke="#0A0A0A" stroke-width="4"/>
  <line x1="50" y1="100" x2="350" y2="100" stroke="#0A0A0A" stroke-width="4"/>
  <text x="200" y="280" font-family="DM Sans, sans-serif" font-size="14" fill="#888888" text-anchor="middle">Polarized Wayfarers</text>
</svg>
